# ProBuilder 4.4.0
# https://unity3d.com/unity/features/worldbuilding/probuilder
# 2021/04/25 15:30:34

mtllib ./Dish.mtl
o Dish

g Cylinder
v -0.75 -0.05 0
v -0.75 0.05 0
v -0.6929096 -0.05 0.2870126
v -0.6929096 0.05 0.2870126
v -0.5303301 -0.05 0.5303301
v -0.5303301 0.05 0.5303301
v -0.2870126 -0.05 0.6929096
v -0.2870126 0.05 0.6929096
v 5.960464E-08 -0.05 0.75
v 5.960464E-08 0.05 0.75
v 0.2870126 -0.05 0.6929097
v 0.2870126 0.05 0.6929097
v 0.5303301 -0.05 0.5303301
v 0.5303301 0.05 0.5303301
v 0.6929096 -0.05 0.2870126
v 0.6929096 0.05 0.2870126
v 0.75 -0.05 -6.556708E-08
v 0.75 0.05 -6.556708E-08
v 0.6929096 -0.05 -0.2870126
v 0.6929096 0.05 -0.2870126
v 0.5303302 -0.05 -0.5303301
v 0.5303302 0.05 -0.5303301
v 0.2870127 -0.05 -0.6929096
v 0.2870127 0.05 -0.6929096
v 0 -0.05 -0.75
v 0 0.05 -0.75
v -0.2870127 -0.05 -0.6929096
v -0.2870127 0.05 -0.6929096
v -0.53033 -0.05 -0.5303302
v -0.53033 0.05 -0.5303302
v -0.6929097 -0.05 -0.2870126
v -0.6929097 0.05 -0.2870126
v 0 -0.05 0
v -0.3880296 -0.001984943 0.1607271
v -0.2969849 -0.001984943 0.2969849
v -0.160727 -0.001984943 0.3880294
v 0 -0.001984943 0.42
v 0.160727 -0.001984943 0.3880295
v 0.2969849 -0.001984943 0.2969849
v 0.3880296 -0.001984943 0.1607271
v 0.4200001 -0.001984943 -3.671757E-08
v 0.3880296 -0.001984943 -0.1607271
v 0.2969849 -0.001984943 -0.2969849
v 0.160727 -0.001984943 -0.3880294
v 0 -0.001984943 4.421155E-20
v 0 -0.001984943 -0.42
v -0.160727 -0.001984943 -0.3880294
v -0.2969847 -0.001984943 -0.2969849
v -0.3880296 -0.001984943 -0.1607271
v -0.4200001 -0.001984943 4.421155E-20

vt -0.1463179 -0.05
vt -0.1463179 0.05
vt 0.1463176 -0.05
vt 0.1463176 0.05
vt -0.75 0
vt 0 0
vt -0.6929096 0.2870126
vt 0.3880296 0.1607271
vt -0.5303301 0.5303301
vt -0.2870126 0.6929096
vt 0.2969849 0.2969849
vt 0.160727 0.3880294
vt 5.960464E-08 0.75
vt 0.2870126 0.6929097
vt 0 0.42
vt 0.5303301 0.5303301
vt -0.160727 0.3880295
vt 0.6929096 0.2870126
vt -0.2969849 0.2969849
vt 0.75 -6.556708E-08
vt -0.3880296 0.1607271
vt 0.6929096 -0.2870126
vt -0.4200001 -3.671757E-08
vt 0.5303302 -0.5303301
vt -0.3880296 -0.1607271
vt 0.2870127 -0.6929096
vt -0.2969849 -0.2969849
vt 0 -0.75
vt -0.160727 -0.3880294
vt 0 -0.42
vt -0.2870127 -0.6929096
vt 0.160727 -0.3880294
vt -0.53033 -0.5303302
vt 0.2969847 -0.2969849
vt -0.6929097 -0.2870126
vt 0.3880296 -0.1607271
vt 0.4200001 4.421155E-20
vt -0.001565967 -0.7486456
vt -0.2884379 -0.6908519
vt 6.216709E-05 -0.4145801
vt -0.160586 -0.3822156
vt 0.2884379 -0.6908519
vt 0.001565967 -0.7486456
vt 0.160586 -0.3822156
vt 0.5326751 -0.5260513
vt 0.2903208 -0.6900627
vt 0.2956329 -0.2906506
vt 0.1599145 -0.3824971
vt -0.2903208 -0.6900627
vt -0.5326753 -0.5260512
vt -0.1599145 -0.3824971
vt -0.2956331 -0.2906506
vt 0.6934307 -0.2821818
vt 0.5322818 -0.5264493
vt 0.3843522 -0.1554032
vt 0.2941085 -0.2921931
vt -0.5322819 -0.5264491
vt -0.6934307 -0.2821818
vt -0.2941087 -0.292193
vt -0.3843522 -0.1554032
vt 0.7486444 0.00208268
vt 0.6922494 -0.2850673
vt 0.4145749 0.00208268
vt 0.3829938 -0.1587214
vt -0.6922494 -0.2850673
vt -0.7486444 0.002082619
vt -0.3829938 -0.1587213
vt -0.4145749 0.002082647
vt 0.6922494 0.2850673
vt 0.7486444 -0.002082684
vt 0.3829938 0.1587213
vt 0.4145749 -0.002082683
vt -0.7486444 -0.002082746
vt -0.6922494 0.2850674
vt -0.4145749 -0.002082718
vt -0.3829938 0.1587214
vt -0.6934307 0.2821818
vt -0.5322818 0.5264491
vt -0.3843522 0.1554033
vt -0.2941087 0.292193
vt -0.5326751 0.5260511
vt -0.2903207 0.6900628
vt -0.2956331 0.2906506
vt -0.1599145 0.3824971
vt -0.2884378 0.6908519
vt -0.001566026 0.7486456
vt -0.160586 0.3822156
vt 6.216706E-05 0.4145801
vt 0.2903207 0.6900627
vt 0.5326752 0.5260511
vt 0.1599145 0.382497
vt 0.2956331 0.2906506
vt 0.5322818 0.5264491
vt 0.6934307 0.2821818
vt 0.2941087 0.292193
vt 0.3843522 0.1554032
vt 0.001565908 0.7486456
vt 0.2884378 0.6908519
vt 0.160586 0.3822156

vn -1 0 9.87551E-08
vn -0.9238795 0 0.3826835
vn -0.7071068 0 0.7071068
vn -0.3826835 0 0.9238795
vn -6.077237E-08 0 1
vn 0.3826835 0 0.9238795
vn 0.7071068 0 0.7071068
vn 0.9238795 0 0.3826835
vn 1 0 -5.317582E-08
vn 0.9238796 0 -0.3826834
vn 0.7071069 0 -0.7071066
vn 0.3826835 0 -0.9238795
vn 0 0 -1
vn -0.3826835 0 -0.9238795
vn -0.7071068 0 -0.7071068
vn -0.9238795 0 -0.3826835
vn 0 -1 0
vn 0 1 0
vn -0.03093818 0.9873455 0.1555367
vn 0.03093818 0.9873455 0.1555367
vn 0.08810443 0.9873456 0.1318576
vn -0.08810444 0.9873455 0.1318576
vn 0.1318577 0.9873455 0.0881045
vn -0.1318577 0.9873455 0.08810441
vn 0.1555367 0.9873455 0.03093817
vn -0.1555368 0.9873455 0.03093822
vn 0.1555368 0.9873455 -0.03093821
vn -0.1555367 0.9873455 -0.03093819
vn -0.1318577 0.9873455 -0.0881045
vn -0.08810449 0.9873455 -0.1318577
vn -0.03093817 0.9873455 -0.1555367
vn 0.08810446 0.9873455 -0.1318577
vn 0.1318577 0.9873455 -0.08810448
vn 0.0309382 0.9873455 -0.1555367

usemtl Dish
f 1/5/17 33/6/17 3/7/17
f 3/7/17 33/6/17 5/9/17
f 5/9/17 33/6/17 7/10/17
f 7/10/17 33/6/17 9/13/17
f 9/13/17 33/6/17 11/14/17
f 11/14/17 33/6/17 13/16/17
f 13/16/17 33/6/17 15/18/17
f 15/18/17 33/6/17 17/20/17
f 17/20/17 33/6/17 19/22/17
f 19/22/17 33/6/17 21/24/17
f 21/24/17 33/6/17 23/26/17
f 23/26/17 33/6/17 25/28/17
f 25/28/17 33/6/17 27/31/17
f 27/31/17 33/6/17 29/33/17
f 29/33/17 33/6/17 31/35/17
f 31/35/17 33/6/17 1/5/17
f 46/30/18 45/6/18 44/29/18
f 47/32/18 45/6/18 46/30/18
f 48/34/18 45/6/18 47/32/18
f 44/29/18 45/6/18 43/27/18
f 49/36/18 45/6/18 48/34/18
f 43/27/18 45/6/18 42/25/18
f 50/37/18 45/6/18 49/36/18
f 42/25/18 45/6/18 41/23/18
f 34/8/18 45/6/18 50/37/18
f 41/23/18 45/6/18 40/21/18
f 40/21/18 45/6/18 39/19/18
f 39/19/18 45/6/18 38/17/18
f 38/17/18 45/6/18 37/15/18
f 36/12/18 45/6/18 35/11/18
f 35/11/18 45/6/18 34/8/18
f 37/15/18 45/6/18 36/12/18
f 4/4/2 2/2/1 1/1/1
f 1/1/1 3/3/2 4/4/2
f 6/4/3 4/2/2 3/1/2
f 3/1/2 5/3/3 6/4/3
f 8/4/4 6/2/3 5/1/3
f 5/1/3 7/3/4 8/4/4
f 10/4/5 8/2/4 7/1/4
f 7/1/4 9/3/5 10/4/5
f 12/4/6 10/2/5 9/1/5
f 9/1/5 11/3/6 12/4/6
f 14/4/7 12/2/6 11/1/6
f 11/1/6 13/3/7 14/4/7
f 16/4/8 14/2/7 13/1/7
f 13/1/7 15/3/8 16/4/8
f 18/4/9 16/2/8 15/1/8
f 15/1/8 17/3/9 18/4/9
f 20/4/10 18/2/9 17/1/9
f 17/1/9 19/3/10 20/4/10
f 22/4/11 20/2/10 19/1/10
f 19/1/10 21/3/11 22/4/11
f 24/4/12 22/2/11 21/1/11
f 21/1/11 23/3/12 24/4/12
f 26/4/13 24/2/12 23/1/12
f 23/1/12 25/3/13 26/4/13
f 28/4/14 26/2/13 25/1/13
f 25/1/13 27/3/14 28/4/14
f 30/4/15 28/2/14 27/1/14
f 27/1/14 29/3/15 30/4/15
f 32/4/16 30/2/15 29/1/15
f 29/1/15 31/3/16 32/4/16
f 2/4/1 32/2/16 31/1/16
f 31/1/16 1/3/1 2/4/1
f 44/41/19 24/39/19 26/38/19
f 26/38/19 46/40/19 44/41/19
f 46/40/20 26/43/20 28/42/20
f 28/42/20 47/44/20 46/40/20
f 47/48/21 28/46/21 30/45/21
f 30/45/21 48/47/21 47/48/21
f 43/52/22 22/50/22 24/49/22
f 24/49/22 44/51/22 43/52/22
f 48/56/23 30/54/23 32/53/23
f 32/53/23 49/55/23 48/56/23
f 42/60/24 20/58/24 22/57/24
f 22/57/24 43/59/24 42/60/24
f 49/64/25 32/62/25 2/61/25
f 2/61/25 50/63/25 49/64/25
f 41/68/26 18/66/26 20/65/26
f 20/65/26 42/67/26 41/68/26
f 50/72/27 2/70/27 4/69/27
f 4/69/27 34/71/27 50/72/27
f 40/76/28 16/74/28 18/73/28
f 18/73/28 41/75/28 40/76/28
f 39/80/29 14/78/29 16/77/29
f 16/77/29 40/79/29 39/80/29
f 38/84/30 12/82/30 14/81/30
f 14/81/30 39/83/30 38/84/30
f 37/88/31 10/86/31 12/85/31
f 12/85/31 38/87/31 37/88/31
f 35/92/32 6/90/32 8/89/32
f 8/89/32 36/91/32 35/92/32
f 34/96/33 4/94/33 6/93/33
f 6/93/33 35/95/33 34/96/33
f 36/99/34 8/98/34 10/97/34
f 10/97/34 37/88/34 36/99/34

