# ProBuilder 4.4.0
# https://unity3d.com/unity/features/worldbuilding/probuilder
# 2021/04/25 15:32:25

mtllib ./Prism.mtl
o Prism

g Prism
v 0.5 -0.5 -0.25
v -0.5 -0.5 -0.25
v 0 0.5 -0.25
v -0.5 -0.5 0.25
v 0 0.5 0.25
v 0.5 -0.5 0.25

vt -0.5 -0.5
vt 0.5 -0.5
vt 0 0.5
vt -0.25 -0.6708204
vt 0.25 -0.6708204
vt -0.25 0.4472136
vt 0.25 0.4472136
vt 0.5 -0.25
vt -0.5 -0.25
vt 0.5 0.25
vt -0.5 0.25

vn 0 0 -1
vn -0.8944272 0.4472136 0
vn 0 0 1
vn 0.8944272 0.4472136 0
vn 0 -1 0

usemtl Player
f 1/1/1 2/2/1 3/3/1
f 4/1/3 6/2/3 5/3/3
f 3/6/2 2/4/2 4/5/2
f 4/5/2 5/7/2 3/6/2
f 5/6/4 6/4/4 1/5/4
f 1/5/4 3/7/4 5/6/4
f 4/11/5 2/9/5 1/8/5
f 1/8/5 6/10/5 4/11/5

